<mxfile host="app.diagrams.net" modified="2023-10-16T02:27:21.036Z" agent="Mozilla/5.0 (Windows NT 10.0; Win64; x64) AppleWebKit/537.36 (KHTML, like Gecko) Chrome/114.0.0.0 Safari/537.36 Edg/114.0.1823.41" etag="ygJR-NBTYvfMwn04pbe0" version="22.0.4" type="github">
  <diagram id="C5RBs43oDa-KdzZeNtuy" name="Page-1">
    <mxGraphModel dx="899" dy="608" grid="1" gridSize="10" guides="1" tooltips="1" connect="1" arrows="1" fold="1" page="1" pageScale="1" pageWidth="827" pageHeight="1169" math="0" shadow="0">
      <root>
        <mxCell id="WIyWlLk6GJQsqaUBKTNV-0" />
        <mxCell id="WIyWlLk6GJQsqaUBKTNV-1" parent="WIyWlLk6GJQsqaUBKTNV-0" />
        <mxCell id="jbd54m7YrZ4pf3-0Iwdg-10" value="" style="edgeStyle=orthogonalEdgeStyle;rounded=0;orthogonalLoop=1;jettySize=auto;html=1;" edge="1" parent="WIyWlLk6GJQsqaUBKTNV-1" source="jbd54m7YrZ4pf3-0Iwdg-0" target="jbd54m7YrZ4pf3-0Iwdg-2">
          <mxGeometry relative="1" as="geometry" />
        </mxCell>
        <mxCell id="jbd54m7YrZ4pf3-0Iwdg-0" value="Mulai" style="rounded=1;whiteSpace=wrap;html=1;" vertex="1" parent="WIyWlLk6GJQsqaUBKTNV-1">
          <mxGeometry x="350" y="40" width="120" height="60" as="geometry" />
        </mxCell>
        <mxCell id="jbd54m7YrZ4pf3-0Iwdg-11" value="" style="edgeStyle=orthogonalEdgeStyle;rounded=0;orthogonalLoop=1;jettySize=auto;html=1;" edge="1" parent="WIyWlLk6GJQsqaUBKTNV-1" source="jbd54m7YrZ4pf3-0Iwdg-2" target="jbd54m7YrZ4pf3-0Iwdg-4">
          <mxGeometry relative="1" as="geometry" />
        </mxCell>
        <mxCell id="jbd54m7YrZ4pf3-0Iwdg-2" value="Input jari-jari&lt;br&gt;&amp;nbsp;(r)" style="shape=parallelogram;perimeter=parallelogramPerimeter;whiteSpace=wrap;html=1;fixedSize=1;" vertex="1" parent="WIyWlLk6GJQsqaUBKTNV-1">
          <mxGeometry x="350" y="150" width="120" height="60" as="geometry" />
        </mxCell>
        <mxCell id="jbd54m7YrZ4pf3-0Iwdg-14" style="edgeStyle=orthogonalEdgeStyle;rounded=0;orthogonalLoop=1;jettySize=auto;html=1;entryX=1;entryY=0.5;entryDx=0;entryDy=0;" edge="1" parent="WIyWlLk6GJQsqaUBKTNV-1">
          <mxGeometry relative="1" as="geometry">
            <mxPoint x="430" y="315" as="sourcePoint" />
            <mxPoint x="655" y="410" as="targetPoint" />
          </mxGeometry>
        </mxCell>
        <mxCell id="jbd54m7YrZ4pf3-0Iwdg-4" value="jari-jari kelipatan 7?" style="rhombus;whiteSpace=wrap;html=1;" vertex="1" parent="WIyWlLk6GJQsqaUBKTNV-1">
          <mxGeometry x="345" y="250" width="130" height="130" as="geometry" />
        </mxCell>
        <mxCell id="jbd54m7YrZ4pf3-0Iwdg-21" style="edgeStyle=orthogonalEdgeStyle;rounded=0;orthogonalLoop=1;jettySize=auto;html=1;entryX=1;entryY=0.75;entryDx=0;entryDy=0;" edge="1" parent="WIyWlLk6GJQsqaUBKTNV-1" source="jbd54m7YrZ4pf3-0Iwdg-5" target="jbd54m7YrZ4pf3-0Iwdg-7">
          <mxGeometry relative="1" as="geometry">
            <Array as="points">
              <mxPoint x="660" y="565" />
            </Array>
          </mxGeometry>
        </mxCell>
        <mxCell id="jbd54m7YrZ4pf3-0Iwdg-5" value="phi=3.14" style="rounded=0;whiteSpace=wrap;html=1;" vertex="1" parent="WIyWlLk6GJQsqaUBKTNV-1">
          <mxGeometry x="590" y="410" width="120" height="60" as="geometry" />
        </mxCell>
        <mxCell id="jbd54m7YrZ4pf3-0Iwdg-20" style="edgeStyle=orthogonalEdgeStyle;rounded=0;orthogonalLoop=1;jettySize=auto;html=1;entryX=0;entryY=0.75;entryDx=0;entryDy=0;" edge="1" parent="WIyWlLk6GJQsqaUBKTNV-1" source="jbd54m7YrZ4pf3-0Iwdg-6" target="jbd54m7YrZ4pf3-0Iwdg-7">
          <mxGeometry relative="1" as="geometry">
            <Array as="points">
              <mxPoint x="170" y="565" />
            </Array>
          </mxGeometry>
        </mxCell>
        <mxCell id="jbd54m7YrZ4pf3-0Iwdg-6" value="phi=22/7" style="rounded=0;whiteSpace=wrap;html=1;" vertex="1" parent="WIyWlLk6GJQsqaUBKTNV-1">
          <mxGeometry x="120" y="420" width="120" height="60" as="geometry" />
        </mxCell>
        <mxCell id="jbd54m7YrZ4pf3-0Iwdg-22" value="" style="edgeStyle=orthogonalEdgeStyle;rounded=0;orthogonalLoop=1;jettySize=auto;html=1;" edge="1" parent="WIyWlLk6GJQsqaUBKTNV-1" source="jbd54m7YrZ4pf3-0Iwdg-7" target="jbd54m7YrZ4pf3-0Iwdg-9">
          <mxGeometry relative="1" as="geometry" />
        </mxCell>
        <mxCell id="jbd54m7YrZ4pf3-0Iwdg-7" value="Hitung luas&lt;br&gt;L=phi x r x r" style="rounded=0;whiteSpace=wrap;html=1;" vertex="1" parent="WIyWlLk6GJQsqaUBKTNV-1">
          <mxGeometry x="355" y="520" width="120" height="60" as="geometry" />
        </mxCell>
        <mxCell id="jbd54m7YrZ4pf3-0Iwdg-8" value="tamoilkan luas" style="shape=display;whiteSpace=wrap;html=1;" vertex="1" parent="WIyWlLk6GJQsqaUBKTNV-1">
          <mxGeometry x="344" y="600" width="126" height="60" as="geometry" />
        </mxCell>
        <mxCell id="jbd54m7YrZ4pf3-0Iwdg-9" value="selesai" style="rounded=1;whiteSpace=wrap;html=1;" vertex="1" parent="WIyWlLk6GJQsqaUBKTNV-1">
          <mxGeometry x="355" y="690" width="120" height="60" as="geometry" />
        </mxCell>
        <mxCell id="jbd54m7YrZ4pf3-0Iwdg-17" style="edgeStyle=orthogonalEdgeStyle;rounded=0;orthogonalLoop=1;jettySize=auto;html=1;entryX=0.392;entryY=-0.013;entryDx=0;entryDy=0;entryPerimeter=0;" edge="1" parent="WIyWlLk6GJQsqaUBKTNV-1" source="jbd54m7YrZ4pf3-0Iwdg-4" target="jbd54m7YrZ4pf3-0Iwdg-6">
          <mxGeometry relative="1" as="geometry" />
        </mxCell>
      </root>
    </mxGraphModel>
  </diagram>
</mxfile>
